<?xml version="1.0" encoding="utf-8"?>
<!-- Generator: Adobe Illustrator 18.1.1, SVG Export Plug-In . SVG Version: 6.00 Build 0)  -->
<!DOCTYPE svg PUBLIC "-//W3C//DTD SVG 1.1//EN" "http://www.w3.org/Graphics/SVG/1.1/DTD/svg11.dtd">
<svg version="1.1" id="Layer_1" xmlns="http://www.w3.org/2000/svg" xmlns:xlink="http://www.w3.org/1999/xlink" x="0px" y="0px"
	 viewBox="0 0 641 320" enable-background="new 0 0 641 320" xml:space="preserve">
<g>
	<rect x="120" fill="#04A487" width="40" height="40"/>
	<rect x="561" fill="#04A487" width="40" height="40"/>
	<rect x="481" fill="#04A487" width="40" height="40"/>
	<rect x="601" y="200" fill="#04A487" width="40" height="40"/>
	<rect x="80" y="280" fill="#04A487" width="40" height="40"/>
	<rect x="80" y="200" fill="#04A487" width="40" height="40"/>
	<rect x="40" y="160" fill="#04A487" width="40" height="40"/>
	<rect y="240" fill="#04A487" width="40" height="40"/>
	<rect x="240" y="280" fill="#04A487" width="40" height="40"/>
	<rect x="520" y="280" fill="#04A487" width="40" height="40"/>
	<rect x="561" y="160" fill="#04A487" width="40" height="40"/>
	<polygon fill="#04A487" points="480,80 480,40 440,40 440,80 400,80 400,40 360,40 360,80 320,80 320,0 280,0 280,40 240,40 
		240,80 200,80 200,40 160,40 160,80 120,80 120,120 80,120 80,160 120,160 120,200 160,200 160,280 200,280 200,240 280,240 
		280,280 320,280 320,240 360,240 360,280 400,280 400,240 520,240 520,200 480,200 480,160 520,160 520,120 560,120 560,80 	"/>
	<rect x="561" y="240" fill="#04A487" width="40" height="40"/>
	<rect x="601" y="40" fill="#04A487" width="40" height="80"/>
	<rect x="437" y="280" fill="#04A487" width="40" height="40"/>
	<rect x="80" y="40" fill="#04A487" width="40" height="40"/>
	<rect fill="#04A487" width="40" height="40"/>
	<rect y="80" fill="#04A487" width="40" height="40"/>
</g>
</svg>
