<?xml version="1.0" encoding="utf-8"?>
<!-- Generator: Adobe Illustrator 18.1.1, SVG Export Plug-In . SVG Version: 6.00 Build 0)  -->
<!DOCTYPE svg PUBLIC "-//W3C//DTD SVG 1.1//EN" "http://www.w3.org/Graphics/SVG/1.1/DTD/svg11.dtd">
<svg version="1.1" id="Layer_1" xmlns="http://www.w3.org/2000/svg" xmlns:xlink="http://www.w3.org/1999/xlink" x="0px" y="0px"
	 viewBox="193.5 0 297 297" enable-background="new 193.5 0 297 297" xml:space="preserve">
<g>
	<polygon fill="#04A487" points="278.7,174.1 334.9,211.8 334.9,178.4 304,157.5 	"/>
	<polygon fill="#04A487" points="405.3,123.5 349.1,85.8 349.1,119.2 380,140.2 	"/>
	<polygon fill="#04A487" points="334.9,119.2 334.9,85.8 278.7,123.5 304,140.2 	"/>
	<polygon fill="#04A487" points="342.3,130.9 317,148.2 342.3,165.5 367.6,148.2 	"/>
	<polygon fill="#04A487" points="272.5,136.5 272.5,160.5 290.4,148.2 	"/>
	<polygon fill="#04A487" points="349.1,178.4 349.1,211.8 405.3,174.1 380,157.5 	"/>
	<path fill="#04A487" d="M193.5,0v297h297V0H193.5z M425.7,117.9c0,0.6,0,0.6,0,0.6c0,0.6,0,0.6,0,0.6v0.6c0,0.6,0,0.6,0,0.6v0.6
		c0,0.6,0,0.6,0,0.6s0,0,0,0.3c0,0,0,0.3,0,0.3s0,0.6-1.9,3.1V176c0,0.6,0,0.6,0,1.2v0.6c0,0.6,0,0.6,0,0.6v0.6c0,0.6,0,0.6,0,0.6
		v0.6c0,0.6,0,0.6,0,0.6c0,0.6,0,0.6,0,0.6c0,0.6,0,0.6,0,0.6c-0.6,0.6-0.6,0.6-0.6,0.6c-0.6,0.6-0.6,0.6-0.6,0.6
		c-0.6,0-0.6,0-0.6,0l-76.6,51.2c-1.2,0.6-2.5,1.2-3.7,1.2s-2.5-0.6-3.7-1.2l-76.6-51.2c-0.6,0-0.6,0-0.6,0
		c-0.6-0.6-0.6-0.6-0.6-0.6c-0.6-0.6-0.6-0.6-0.6-0.6c0-0.6,0-0.6,0-0.6c0-0.6,0-0.6,0-0.6c0-0.6,0-0.6,0-0.6v-0.6
		c0-0.6,0-0.6,0-0.6v-0.6c0-0.6,0-0.6,0-0.6v-0.6c0-0.6,0-0.6,0-1.2v-50.6c0-0.6,0-1.2,0-1.2c0-0.6,0-0.6,0-0.6v-0.6
		c0-0.6,0-0.6,0-0.6v-0.6c0-0.6,0-0.6,0-0.6v-0.6c0-0.6,0-0.6,0-0.6c0-0.6,0-0.6,0-0.6c0-0.6,0-0.6,0-0.6c0.6-0.6,0.6-0.6,0.6-0.6
		c0.6-0.6,0.6-0.6,0.6-0.6c0.6,0,0.6,0,0.6,0l77.8-51.9c2.5-1.9,5.6-1.9,8,0l76.6,50.6c0.6,0,0.6,0,0.6,0c0.6,0.6,0.6,0.6,0.6,0.6
		c0.6,0.6,0.6,0.6,0.6,0.6C425.7,117.9,425.7,117.9,425.7,117.9z"/>
	<polygon fill="#04A487" points="411.5,160.5 411.5,137.1 393.6,148.8 	"/>
</g>
</svg>
