<?xml version="1.0" encoding="utf-8"?>
<!-- Generator: Adobe Illustrator 18.1.1, SVG Export Plug-In . SVG Version: 6.00 Build 0)  -->
<!DOCTYPE svg PUBLIC "-//W3C//DTD SVG 1.1//EN" "http://www.w3.org/Graphics/SVG/1.1/DTD/svg11.dtd">
<svg version="1.1" id="Layer_1" xmlns="http://www.w3.org/2000/svg" xmlns:xlink="http://www.w3.org/1999/xlink" x="0px" y="0px"
	 viewBox="0 0 434.5 434.4" enable-background="new 0 0 434.5 434.4" xml:space="preserve">
<rect x="-0.9" y="0.2" fill="#F54A66" width="434.5" height="434.9"/>
<g>
	<path fill="#FFFFFF" d="M322.4,140v109.7h-212V140H322.4 M322.9,133.7h-213c-3.2,0-5.8,2.6-5.8,5.8v110.7c0,3.2,2.6,5.8,5.8,5.8
		h213c3.2,0,5.8-2.6,5.8-5.8V139.5C328.7,136.3,326.1,133.7,322.9,133.7L322.9,133.7z"/>
	<path fill="#FFFFFF" d="M289.5,314.7H145.1c-4.8,0-8.4-5-8.4-10v-9.6c0-4.9,3.5-7.3,8.4-7.3h33.6v-16H96.1c-4.9,0-8.4-4.8-8.4-9.7
		V128.4c0-4.9,3.5-7.7,8.4-7.7h242.4c5,0,9.2,2.8,9.2,7.7V262c0,4.9-4.3,9.7-9.2,9.7h-80.8v16h31.8c4.9,0,9.2,2.5,9.2,7.3v9.6
		C298.7,309.7,294.3,314.7,289.5,314.7z M145.1,293.7c-1.5,0-1.4-0.1-1.4,1.3v9.6c0,1.4-0.1,4,1.4,4h144.4c1.5,0,3.2-2.6,3.2-4v-9.6
		c0-1.4-1.7-1.3-3.2-1.3h-38.8v-28h87.8c1.4,0,3.2-2.2,3.2-3.7V128.4c0-1.4-1.7-1.7-3.2-1.7H96.1c-1.5,0-2.4,0.3-2.4,1.7V262
		c0,1.5,1,3.7,2.4,3.7h88.6v28H145.1z"/>
	<path fill="#FFFFFF" d="M232.7,233.8C232.7,233.8,232.7,233.8,232.7,233.8c-2.9,0-5.5-1.4-7.1-3.8l-12.1-17.9L203.1,224
		c-0.8,0.9-2.1,1.3-3.2,0.9c-1.2-0.3-2-1.3-2.2-2.6l-8.9-62.2c-0.2-1.3,0.4-2.5,1.5-3.2c1.1-0.6,2.5-0.5,3.5,0.2l49,38.2
		c1,0.8,1.4,2,1.1,3.2c-0.3,1.2-1.2,2.1-2.4,2.4l-13,2.6l11.3,16.8c1.3,1.9,1.7,4.2,1.3,6.4c-0.4,2.2-1.7,4.2-3.6,5.5
		C236.1,233.2,234.4,233.8,232.7,233.8z M213.9,203.8c0.1,0,0.1,0,0.2,0c1,0.1,1.9,0.6,2.4,1.4l14.3,21.2c0.4,0.6,1.1,1,1.9,1h0
		c0.5,0,0.9-0.1,1.3-0.4c0.5-0.3,0.8-0.9,1-1.5c0.1-0.6,0-1.2-0.3-1.7l-13.9-20.7c-0.6-0.9-0.7-2-0.3-2.9c0.4-1,1.2-1.7,2.3-1.9
		l10.9-2.2l-37.5-29.2l6.8,47.8l8.7-9.8C212.1,204.2,213,203.8,213.9,203.8z"/>
</g>
</svg>
