<?xml version="1.0" encoding="utf-8"?>
<!-- Generator: Adobe Illustrator 18.1.1, SVG Export Plug-In . SVG Version: 6.00 Build 0)  -->
<!DOCTYPE svg PUBLIC "-//W3C//DTD SVG 1.1//EN" "http://www.w3.org/Graphics/SVG/1.1/DTD/svg11.dtd">
<svg version="1.1" id="Layer_1" xmlns="http://www.w3.org/2000/svg" xmlns:xlink="http://www.w3.org/1999/xlink" x="0px" y="0px"
	 viewBox="0 0 48.1 48.1" enable-background="new 0 0 48.1 48.1" xml:space="preserve">
<g>
	<path fill="#04A487" d="M37.6,19.8C37.6,19.8,37.6,19.7,37.6,19.8c0-0.1,0-0.1,0-0.1c0,0,0,0,0-0.1c0,0,0-0.1,0-0.1c0,0,0,0,0-0.1
		c0,0,0-0.1,0-0.1c0,0,0,0,0-0.1c0,0,0,0,0-0.1c0,0,0,0,0-0.1c0,0,0,0-0.1-0.1c0,0,0,0,0,0c0,0,0,0-0.1-0.1c0,0,0,0-0.1,0
		c0,0,0,0,0,0l-12.4-8.2c-0.4-0.3-0.9-0.3-1.3,0L11,19c0,0,0,0,0,0c0,0,0,0-0.1,0c0,0,0,0-0.1,0.1c0,0,0,0,0,0c0,0,0,0-0.1,0.1
		c0,0,0,0,0,0.1c0,0,0,0,0,0.1c0,0,0,0,0,0.1c0,0,0,0.1,0,0.1c0,0,0,0,0,0.1c0,0,0,0.1,0,0.1c0,0,0,0,0,0.1c0,0,0,0.1,0,0.1
		c0,0,0,0,0,0.1c0,0,0,0.1,0,0.2v8.2c0,0.1,0,0.1,0,0.2c0,0,0,0,0,0c0,0,0,0.1,0,0.1c0,0,0,0,0,0.1c0,0,0,0.1,0,0.1c0,0,0,0,0,0.1
		c0,0,0,0.1,0,0.1c0,0,0,0,0,0.1c0,0,0,0,0,0.1c0,0,0,0,0,0.1c0,0,0,0,0.1,0.1c0,0,0,0,0,0c0,0,0,0,0.1,0.1c0,0,0,0,0.1,0
		c0,0,0,0,0,0l12.4,8.3c0.2,0.1,0.4,0.2,0.6,0.2c0.2,0,0.4-0.1,0.6-0.2l12.4-8.3c0,0,0,0,0,0c0,0,0,0,0.1,0c0,0,0,0,0.1-0.1
		c0,0,0,0,0,0c0,0,0,0,0.1-0.1c0,0,0,0,0-0.1c0,0,0,0,0-0.1c0,0,0,0,0-0.1c0,0,0-0.1,0-0.1c0,0,0,0,0-0.1c0,0,0-0.1,0-0.1
		c0,0,0,0,0-0.1c0,0,0-0.1,0-0.1c0,0,0,0,0,0c0-0.1,0-0.1,0-0.2v-8.2C37.6,19.9,37.6,19.8,37.6,19.8z M25.2,13.9l9.1,6.1l-4.1,2.7
		l-5-3.4V13.9z M22.9,13.9v5.4l-5,3.4l-4.1-2.7L22.9,13.9z M12.8,22.1l2.9,1.9L12.8,26V22.1z M22.9,34.3l-9.1-6.1l4.1-2.7l5,3.4
		V34.3z M24.1,26.8l-4.1-2.8l4.1-2.8l4.1,2.8L24.1,26.8z M25.2,34.3v-5.4l5-3.4l4.1,2.7L25.2,34.3z M35.3,26l-2.9-1.9l2.9-1.9V26z"
		/>
</g>
<g>
	<g>
		<path fill="#04A487" d="M45.1,3v42.1H3V3H45.1 M48.1,0H0v48.1h48.1V0L48.1,0z"/>
	</g>
</g>
</svg>
