<?xml version="1.0" encoding="utf-8"?>
<!-- Generator: Adobe Illustrator 18.1.1, SVG Export Plug-In . SVG Version: 6.00 Build 0)  -->
<!DOCTYPE svg PUBLIC "-//W3C//DTD SVG 1.1//EN" "http://www.w3.org/Graphics/SVG/1.1/DTD/svg11.dtd">
<svg version="1.1" id="Layer_1" xmlns="http://www.w3.org/2000/svg" xmlns:xlink="http://www.w3.org/1999/xlink" x="0px" y="0px"
	 viewBox="0 0 434.5 434.4" enable-background="new 0 0 434.5 434.4" xml:space="preserve">
<rect x="0" y="-0.2" fill="#F54A66" width="434.5" height="434.9"/>
<path fill="#FFFFFF" d="M331.7,105c0-8.7-7.1-15.7-15.7-15.7H119.4c-8.7,0-15.7,7.1-15.7,15.7v223.5c0,8.7,7.1,15.7,15.7,15.7h196.5
	c8.7,0,15.7-7.1,15.7-15.7V105z M229.7,328.2h-111v-95h111V328.2z M229.7,224.2h-110v-119h110V224.2z M316.7,328.2h-76v-67h76V328.2
	z M316.7,250.2h-76v-67h76V250.2z M316.7,172.2h-76v-67h76V172.2z"/>
</svg>
