<?xml version="1.0" encoding="utf-8"?>
<!-- Generator: Adobe Illustrator 18.1.1, SVG Export Plug-In . SVG Version: 6.00 Build 0)  -->
<!DOCTYPE svg PUBLIC "-//W3C//DTD SVG 1.1//EN" "http://www.w3.org/Graphics/SVG/1.1/DTD/svg11.dtd">
<svg version="1.1" id="Layer_1" xmlns="http://www.w3.org/2000/svg" xmlns:xlink="http://www.w3.org/1999/xlink" x="0px" y="0px"
	 viewBox="0 0 434.5 434.4" enable-background="new 0 0 434.5 434.4" xml:space="preserve">
<rect x="0" y="-0.2" fill="#F54A66" width="434.5" height="434.9"/>
<g>
	<path fill="#FFFFFF" d="M350.2,252.2c-1.2-4.5-4-8.3-8-10.7l-13-7.7c0.8-5.6,1.3-11.3,1.3-17.1c0-5.8-0.4-11.5-1.3-17.1l12.7-7.7
		c8.2-5,10.9-15.7,5.9-23.9l-26.4-43.5c-3.1-5.2-8.9-8.4-14.9-8.4c-3.2,0-6.4,0.9-9.2,2.5l-12.3,7.4c-7.8-5.8-15.5-10.7-25.5-14.5
		v-14c0-9.6-7.4-18.2-17-18.2h-50.9c-9.6,0-17.1,8.6-17.1,18.2v14c-10,3.9-18.6,9-26.6,15.1l-12.2-7.2c-2.7-1.6-5.7-2.4-8.8-2.4
		c-6.1,0-11.9,3.3-15,8.5l-25.9,43.8c-4.9,8.3-2.1,19,6.1,23.9l12.3,7.3c-0.8,5.3-1.2,10.7-1.2,16.2c0,6.3,0.5,12.6,1.5,18.6
		l-12.4,7.5c-4,2.4-6.8,6.2-7.9,10.8c-1.1,4.5-0.4,9.2,2,13.2l26.4,43.5c3.1,5.2,8.9,8.4,14.9,8.4c3.2,0,6.1-0.9,8.9-2.5l13.3-7.9
		c7.5,5.5,15.6,10.1,24.6,13.7v15.3c0,9.6,7.5,17,17.1,17h50.9c9.6,0,17-7.4,17-17v-15.3c10-3.7,17.7-8.6,25.4-14.4l13.3,7.8
		c2.7,1.6,5.8,2.4,8.9,2.4c6.1,0,11.9-3.3,15.1-8.5l25.9-43.8C350.7,261.4,351.4,256.7,350.2,252.2z M340.6,260.8l-25.9,43.8
		c-1.6,2.6-4.4,4.1-7.2,4.1c-1.4,0-3.1-0.4-4.4-1.2l-10.4-6.1c0,0,0,0,0.1-0.1l-8.2-4.9c-9.8,8.3-21.1,14.5-33.5,18.8l0,20h-0.4v2
		c0,4.6-3.4,8-8,8h-50.9c-4.6,0-8.1-3.4-8.1-8v-12.1c0,0-0.1,0.1,0,0.1l-0.1-9.5c-12.1-4.1-23.3-10.4-32.9-18.3l-18.8,11.2l-0.1-0.1
		c-1.2,0.7-2.5,1-3.9,1c-2.8,0-5.6-1.4-7.1-4l-26.3-43.5c-2.4-3.9-1.1-9.1,2.8-11.5l9.6-5.9c0,0,0,0.1,0,0.1l8.1-4.9
		c-1.7-7.5-2.6-15.2-2.6-23.2c0-7,0.7-13.9,2-20.5L97,185.8l0.1-0.2l-0.3-0.2c-4-2.3-5.3-7.5-2.9-11.5l25.9-43.8
		c1.6-2.6,4.4-4.1,7.2-4.1c1.4,0,2.8,0.4,4.1,1.2l9.3,5.5c0,0-0.1,0.1-0.1,0.1l8.4,4.9c10.1-8.7,21.9-15.6,34.9-20v-9.5v-5.8v-4.9
		c0-4.6,3.5-9.2,8.1-9.2h50.9c4.6,0,8,4.6,8,9.2v4.9v5.8v9.5c13,4.3,24,10.9,33.8,19.3l8.2-4.9c0,0,0,0-0.1-0.1l9.5-5.7
		c1.3-0.8,2.9-1.2,4.4-1.2c2.8,0,5.6,1.4,7.2,4l26.4,43.5c2.2,3.6,1.3,8.3-2,10.9l0.1,0.1l-19,11.4c1.5,7,2.3,14.2,2.3,21.7
		c0,7.4-0.8,14.7-2.3,21.7l13.6,8.1l4.7,2.8C341.5,251.6,342.9,256.8,340.6,260.8z"/>
	<path fill="#FFFFFF" d="M217.2,305.9c-48.8,0-88.5-39.7-88.5-88.5c0-48.8,39.7-88.5,88.5-88.5s88.5,39.7,88.5,88.5
		C305.7,266.2,266,305.9,217.2,305.9z M217.2,137.9c-43.8,0-79.5,35.6-79.5,79.5c0,43.8,35.6,79.5,79.5,79.5
		c43.8,0,79.5-35.6,79.5-79.5C296.7,173.6,261,137.9,217.2,137.9z"/>
	<g>
		<path fill="#FFFFFF" d="M187.6,177.6c-1-0.9-2.3-1.3-3.6-1.3c-1.7,0-3.2,0.7-4.3,2l-29.5,34.9c-0.9,1.1-1.4,2.5-1.3,4
			c-0.1,1.4,0.4,2.8,1.3,4l29.5,34.9c1.1,1.3,2.7,2,4.3,2c1.3,0,2.6-0.5,3.6-1.3c2.4-2,2.7-5.6,0.7-8l-26.7-31.6l26.7-31.6
			C190.3,183.2,190,179.6,187.6,177.6z"/>
		<path fill="#FFFFFF" d="M284.3,213.8l-29.5-34.9c-1.1-1.3-2.7-2-4.3-2c-1.3,0-2.6,0.5-3.6,1.3c-1.2,1-1.9,2.3-2,3.8
			c-0.1,1.5,0.3,3,1.3,4.1l26.7,31.6l-26.7,31.6c-1,1.2-1.4,2.6-1.3,4.1c0.1,1.5,0.8,2.9,2,3.8c1,0.9,2.3,1.3,3.6,1.3
			c1.7,0,3.2-0.7,4.3-2l29.5-34.9c0.9-1.1,1.4-2.5,1.3-4C285.7,216.3,285.3,214.9,284.3,213.8z"/>
		<path fill="#FFFFFF" d="M235.3,178.2c-0.8-0.4-1.6-0.5-2.4-0.5c-2.2,0-4.2,1.3-5.1,3.2l-32.2,68.3c-0.6,1.4-0.7,2.9-0.2,4.3
			c0.5,1.4,1.5,2.6,2.9,3.2c0.8,0.4,1.6,0.5,2.4,0.5c2.2,0,4.2-1.3,5.1-3.2l32.2-68.3C239.3,182.9,238.1,179.5,235.3,178.2z"/>
	</g>
</g>
</svg>
