<?xml version="1.0" encoding="utf-8"?>
<!-- Generator: Adobe Illustrator 18.1.1, SVG Export Plug-In . SVG Version: 6.00 Build 0)  -->
<!DOCTYPE svg PUBLIC "-//W3C//DTD SVG 1.1//EN" "http://www.w3.org/Graphics/SVG/1.1/DTD/svg11.dtd">
<svg version="1.1" id="Layer_1" xmlns="http://www.w3.org/2000/svg" xmlns:xlink="http://www.w3.org/1999/xlink" x="0px" y="0px"
	 viewBox="0 0 434.5 434.4" enable-background="new 0 0 434.5 434.4" xml:space="preserve">
<rect x="0" y="-0.5" fill="#F54A66" width="434.5" height="434.9"/>
<path fill="#FFFFFF" d="M287.8,97.2l-171,171c-0.9,0.9-1.6,1.9-2,3.1l-22,58.9c-1.2,3.2-0.4,6.7,2,9.1c2.4,2.4,5.9,3.2,9.1,2.1
	l58.9-21.1c1.2-0.4,2.3-1.1,3.2-2l171.5-171.5c6.5-6.5,6.3-16.9-0.2-23.4l-26-26C304.7,91,294.3,90.7,287.8,97.2z M156.3,313.5
	l-39,14L107,317.1l14.4-38.6L156.3,313.5z M283.8,188.3L163.6,308.4l-37.4-37.4l120.2-120.2L283.8,188.3z M297,175.1l-7.1,7.1
	l-37.4-37.4l7.1-7.1L297,175.1z M310.7,161.3l-7.6,7.6l-37.4-37.4l7.6-7.6L310.7,161.3z M316.9,155.2l-37.4-37.4l7.1-7.1l37.4,37.4
	L316.9,155.2z"/>
</svg>
