<?xml version="1.0" encoding="utf-8"?>
<!-- Generator: Adobe Illustrator 18.1.1, SVG Export Plug-In . SVG Version: 6.00 Build 0)  -->
<!DOCTYPE svg PUBLIC "-//W3C//DTD SVG 1.1//EN" "http://www.w3.org/Graphics/SVG/1.1/DTD/svg11.dtd">
<svg version="1.1" id="Layer_1" xmlns="http://www.w3.org/2000/svg" xmlns:xlink="http://www.w3.org/1999/xlink" x="0px" y="0px"
	 viewBox="193.5 0 297 297" enable-background="new 193.5 0 297 297" xml:space="preserve">
<path fill="#04A487" d="M193.5,0v297h297V0H193.5z M424.4,106.2c0,1.9,0,3.7,0,5.6c0,55.6-42,119.8-119.8,119.8
	c-24.1,0-46.3-7.4-64.8-19.1c3.1,0.6,6.2,0.6,9.9,0.6c19.8,0,38.3-6.8,52.5-17.9c-18.5,0-34-12.3-39.5-29c2.5,0.6,5.6,0.6,8,0.6
	c3.7,0,7.4,0,11.1-1.2c-19.1-3.7-34-21-34-41.4v-0.6c5.6,3.7,12.3,5.6,19.1,5.6c-11.1-7.4-18.5-20.4-18.5-35.2
	c0-7.4,1.9-14.8,5.6-21c21,25.3,51.9,42,87.1,43.8c-0.6-3.1-1.2-6.8-1.2-9.9c0-22.8,18.5-42,42-42c12.3,0,23.5,5.6,30.9,13.6
	c9.3-1.9,18.5-5.6,26.6-10.5c-3.1,9.9-9.9,18.5-18.5,23.5c8.6-1.2,16.7-3.7,24.1-6.8C439.3,93.2,431.8,100.6,424.4,106.2z"/>
</svg>
