<?xml version="1.0" encoding="utf-8"?>
<!-- Generator: Adobe Illustrator 18.1.1, SVG Export Plug-In . SVG Version: 6.00 Build 0)  -->
<!DOCTYPE svg PUBLIC "-//W3C//DTD SVG 1.1//EN" "http://www.w3.org/Graphics/SVG/1.1/DTD/svg11.dtd">
<svg version="1.1" id="Layer_1" xmlns="http://www.w3.org/2000/svg" xmlns:xlink="http://www.w3.org/1999/xlink" x="0px" y="0px"
	 viewBox="0 0 434.5 434.4" enable-background="new 0 0 434.5 434.4" xml:space="preserve">
<rect x="0" y="-0.2" fill="#F54A66" width="434.5" height="434.9"/>
<path fill="#FFFFFF" d="M345.5,155.5c-3.2-3-6.9-4.3-11.3-4.3h-5.8c-1.8-8-8.4-13-16.2-13H305c-7.8,0-14.4,5-16.2,13h-18.7v-17.1
	c0-9.1-7.3-15.9-16.6-15.9h-71.6c-9.2,0-16.8,6.9-16.8,15.9v17.1h-63.7c-9.2,0-17.3,6.6-17.3,15.8v22.6v8.6h9.2h73.8
	c-0.3,0-0.6,1-0.9,1.5c-2.7,4.5-4.9,9.5-6.4,14.5H93.4h-9.2v8.6v75.9c0,8.7,8.1,16.5,17.3,16.5h232.7c4.2,0,7.8-1.8,11-4.6
	c3.5-3,5.1-7.6,5.1-12v-75.9v-8.6h-7.8h-66.7c-1.7-6-4.1-11-7.3-16h74h7.8v-8.6V167C350.2,162.6,348.8,158.6,345.5,155.5z
	 M278.1,231.2c0-2.7-0.2-5.9-0.5-7.9h64.7v75.5c0,3.9-3.7,7.5-8.1,7.5H101.5c-4.4,0-8.3-3.6-8.3-7.5v-75.5h64.9
	c-0.4,2-0.5,5.2-0.5,7.9c0,11.4,3.2,22.1,8.7,31.2c1.8,2.9,3.8,5.6,6,8.1c1.9,2.2,3.9,4.2,6.1,6.1c0.4,0.3,0.7,0.6,1.1,0.9
	c1.9,1.5,3.8,3,5.8,4.3c2.4,1.6,5,3,7.7,4.2c0.9,0.4,1.8,0.8,2.7,1.1c6.8,2.7,14.3,4.3,22.1,4.3
	C251.1,291.3,278.1,264.4,278.1,231.2z M170.2,231c0-26.3,21.3-47.6,47.6-47.6c26.3,0,47.6,21.3,47.6,47.6
	c0,26.3-21.3,47.6-47.6,47.6C191.5,278.6,170.2,257.3,170.2,231z M342.2,190.2h-80.6c-11-12-26.5-19.2-43.8-19.2
	c-7.8,0-15.2,1.3-22.1,4c-0.9,0.4-1.8,0.7-2.7,1.1c-2.7,1.2-5.2,2.6-7.7,4.1c-2,1.3-4,2.7-5.8,4.2c-0.4,0.3-0.7,0.9-1.1,1.2
	c-1.5,1.3-3,2.5-4.4,4.5H93.2V167c0-4.4,3.9-7.8,8.3-7.8h71.7v-25.1c0-4.4,4.4-6.9,8.8-6.9h71.7c4.4,0,7.5,2.5,7.5,6.9v25.1h35v-4.9
	c0-4.4,4.4-7.1,8.8-7.1h7.2c4.4,0,8,2.7,8,7.1v4.9h13.9c4.4,0,8.1,3.4,8.1,7.8V190.2z"/>
</svg>
