<?xml version="1.0" encoding="utf-8"?>
<!-- Generator: Adobe Illustrator 18.1.1, SVG Export Plug-In . SVG Version: 6.00 Build 0)  -->
<!DOCTYPE svg PUBLIC "-//W3C//DTD SVG 1.1//EN" "http://www.w3.org/Graphics/SVG/1.1/DTD/svg11.dtd">
<svg version="1.1" id="Layer_1" xmlns="http://www.w3.org/2000/svg" xmlns:xlink="http://www.w3.org/1999/xlink" x="0px" y="0px"
	 viewBox="0 0 48.1 48.1" enable-background="new 0 0 48.1 48.1" xml:space="preserve">
<g>
	<g>
		<path fill="#04A487" d="M45.1,3v42.1H3V3H45.1 M48.1,0H0v48.1h48.1V0L48.1,0z"/>
	</g>
	<path fill="#04A487" d="M40.7,13.7c-1.2,0.5-2.5,0.9-3.9,1.1c1.4-0.8,2.5-2.2,3-3.8c-1.3,0.8-2.8,1.4-4.3,1.7c-1.2-1.3-3-2.2-5-2.2
		c-3.8,0-6.8,3.1-6.8,6.8c0,0.5,0.1,1.1,0.2,1.6c-5.7-0.3-10.7-3-14.1-7.1c-0.6,1-0.9,2.2-0.9,3.4c0,2.4,1.2,4.5,3,5.7
		c-1.1,0-2.2-0.3-3.1-0.9v0.1c0,3.3,2.4,6.1,5.5,6.7c-0.6,0.2-1.2,0.2-1.8,0.2c-0.4,0-0.9,0-1.3-0.1c0.9,2.7,3.4,4.7,6.4,4.7
		c-2.3,1.8-5.3,2.9-8.5,2.9c-0.6,0-1.1,0-1.6-0.1c3,1.9,6.6,3.1,10.5,3.1c12.6,0,19.4-10.4,19.4-19.4c0-0.3,0-0.6,0-0.9
		C38.6,16.3,39.8,15.1,40.7,13.7z"/>
</g>
</svg>
