<?xml version="1.0" encoding="utf-8"?>
<!-- Generator: Adobe Illustrator 18.1.1, SVG Export Plug-In . SVG Version: 6.00 Build 0)  -->
<!DOCTYPE svg PUBLIC "-//W3C//DTD SVG 1.1//EN" "http://www.w3.org/Graphics/SVG/1.1/DTD/svg11.dtd">
<svg version="1.1" id="Layer_1" xmlns="http://www.w3.org/2000/svg" xmlns:xlink="http://www.w3.org/1999/xlink" x="0px" y="0px"
	 viewBox="0 0 434.5 434.4" enable-background="new 0 0 434.5 434.4" xml:space="preserve">
<rect x="0.6" y="0.2" fill="#F54A66" width="434.5" height="434.9"/>
<g>
	<path fill="#FFFFFF" d="M284.7,346.9H149.8c-6.1,0-11.1-5-11.1-11.1V98.6c0-6.1,5-11.1,11.1-11.1h134.9c6.1,0,11.1,5,11.1,11.1
		v237.2C295.8,341.9,290.8,346.9,284.7,346.9z M149.8,95.3c-1.8,0-3.3,1.5-3.3,3.3v237.2c0,1.8,1.5,3.3,3.3,3.3h134.9
		c1.8,0,3.3-1.5,3.3-3.3V98.6c0-1.8-1.5-3.3-3.3-3.3H149.8z"/>
	<path fill="#FFFFFF" d="M270.1,310H164.3c-6.1,0-11.1-5-11.1-11.1V124.7c0-6.1,5-11.1,11.1-11.1h105.8c6.1,0,11.1,5,11.1,11.1V299
		C281.2,305.1,276.2,310,270.1,310z M164.3,121.4c-1.8,0-3.3,1.5-3.3,3.3V299c0,1.8,1.5,3.3,3.3,3.3h105.8c1.8,0,3.3-1.5,3.3-3.3
		V124.7c0-1.8-1.5-3.3-3.3-3.3H164.3z"/>
	<path fill="#FFFFFF" d="M217.5,322c1.7,0,3,1.3,3,3s-1.3,3-3,3s-3-1.3-3-3S215.9,322,217.5,322 M217.5,314.2
		c-6,0-10.8,4.8-10.8,10.8s4.8,10.8,10.8,10.8s10.8-4.8,10.8-10.8S223.5,314.2,217.5,314.2L217.5,314.2z"/>
	<path fill="#FFFFFF" d="M231.3,108.7h-28.2c-2.2,0-3.9-1.8-3.9-4s1.7-4,3.9-4h28.2c2.2,0,3.9,1.8,3.9,4S233.5,108.7,231.3,108.7z"
		/>
	<path fill="#FFFFFF" d="M176.5,202c-1,0-2-0.4-2.8-1.1c-1.5-1.5-1.5-4,0-5.5c11.8-11.8,27.4-18.3,44.1-18.3s32.3,6.5,44.1,18.3
		c1.5,1.5,1.5,4,0,5.5c-1.5,1.5-4,1.5-5.5,0c-10.3-10.3-24-16-38.6-16c-14.6,0-28.3,5.7-38.6,16C178.5,201.7,177.5,202,176.5,202z"
		/>
	<path fill="#FFFFFF" d="M248.8,211.3c-1,0-2-0.4-2.8-1.1c-15.6-15.6-40.9-15.6-56.5,0c-1.5,1.5-4,1.5-5.5,0c-1.5-1.5-1.5-4,0-5.5
		c18.6-18.6,48.9-18.6,67.5,0c1.5,1.5,1.5,4,0,5.5C250.8,210.9,249.8,211.3,248.8,211.3z"/>
	<path fill="#FFFFFF" d="M235.3,219.2c-1,0-2-0.4-2.8-1.1c-3.9-3.9-9.1-6.1-14.7-6.1c-5.5,0-10.8,2.2-14.7,6.1c-1.5,1.5-4,1.5-5.5,0
		c-1.5-1.5-1.5-4,0-5.5c5.4-5.4,12.6-8.4,20.2-8.4c7.6,0,14.8,3,20.2,8.4c1.5,1.5,1.5,4,0,5.5C237.3,218.8,236.3,219.2,235.3,219.2z
		"/>
	<circle fill="#FFFFFF" cx="217.8" cy="226" r="7.7"/>
</g>
</svg>
