<?xml version="1.0" encoding="utf-8"?>
<!-- Generator: Adobe Illustrator 18.1.1, SVG Export Plug-In . SVG Version: 6.00 Build 0)  -->
<!DOCTYPE svg PUBLIC "-//W3C//DTD SVG 1.1//EN" "http://www.w3.org/Graphics/SVG/1.1/DTD/svg11.dtd">
<svg version="1.1" id="Layer_1" xmlns="http://www.w3.org/2000/svg" xmlns:xlink="http://www.w3.org/1999/xlink" x="0px" y="0px"
	 viewBox="0 0 153 310" enable-background="new 0 0 153 310" xml:space="preserve">
<g>
	<g>
		<polygon fill="#04A487" points="63,99 63,90 54,90 54,45 45,45 45,36 36,36 36,27 0,27 0,72 9,72 9,81 18,81 18,90 27,90 27,99 
			36,99 36,108 27,108 27,117 18,117 18,162 27,162 27,171 36,171 36,162 45,162 45,153 54,153 54,144 63,144 63,108 72,108 72,99 
					"/>
		<polygon fill="#04A487" points="117,27 117,36 108,36 108,45 99,45 99,90 90,90 90,99 81,99 81,108 90,108 90,144 99,144 99,153 
			108,153 108,162 117,162 117,171 126,171 126,162 135,162 135,117 126,117 126,108 117,108 117,99 126,99 126,90 135,90 135,81 
			144,81 144,72 153,72 153,27 		"/>
		<rect x="45" y="45" fill="#04A487" width="9" height="9"/>
		<polygon fill="#DDD0C6" points="54,126 54,108 45,108 45,117 36,117 36,126 27,126 27,144 36,144 36,153 45,153 45,162 54,162 
			54,144 45,144 45,126 		"/>
		<polygon fill="#DDD0C6" points="99,63 99,54 90.1,54 90,54 81.1,54 81,54 72,54 63.1,54 62.9,54 54,54 54,63 45,63 45,90 54,90 
			54,99 63,99 63,108 72,108 81,108 81.1,108 90,108 90,99 99,99 99,90 108,90 108,63 		"/>
		<rect x="63" y="63" fill="#0D589E" width="9" height="18"/>
		<rect x="81" y="63" fill="#0D589E" width="9" height="18"/>
		<rect x="81" y="225" fill="#DDD0C6" width="27" height="9"/>
		<polygon fill="#DDD0C6" points="117,126 117,117 108,117 108,108 99,108 99,126 108,126 108,144 99,144 99,162 108,162 108,153 
			117,153 117,144 126,144 126,126 		"/>
		<rect x="45" y="225" fill="#DDD0C6" width="27" height="9"/>
		<polygon fill="#69C6B7" points="90,108 81,108 72,108 63,108 54,108 54,162 54,225 63,225 72,225 72,171 81,171 81,225 90,225 
			99,225 99,162 99,108 		"/>
		<polygon fill="#FBDB96" points="108,54 108,45 99,45 99,36 90,36 90,27 99,27 99,9 90,9 90,0 63,0 63,9 54,9 54,27 63,27 63,36 
			54,36 54,45 45,45 45,54 36,54 36,81 45,81 45,63 54,63 54,54 99,54 99,63 108,63 108,81 117,81 117,54 		"/>
	</g>
	<g>
		<path fill="#04A487" d="M27.3,263.2h14.1v4.7H46v23.4h-4.7v4.7H27.3v9.4h4.7v4.7H13.2v-4.7h4.7v-37.5h-4.7v-4.7h9.4v4.7h4.7l0,0
			v23.4h9.4v-23.4h-9.4V263.2z"/>
		<path fill="#04A487" d="M54,263.2H68v28.1h4.7v4.7H54v-4.7h4.7v-23.4H54V263.2z M58.7,249.1H68v9.4h-9.4V249.1z"/>
		<path fill="#04A487" d="M80.7,263.2h9.4v4.7h4.7v4.7h4.7v-4.7h4.7v-4.7h9.4v4.7h-4.7v4.7h-4.7v14.1h4.7v4.7h4.7v4.7h-9.4v-4.7
			h-4.7v-4.7h-4.7v4.7h-4.7v4.7h-9.4v-4.7h4.7v-4.7h4.7v-14.1h-4.7v-4.7h-4.7V263.2z"/>
		<path fill="#04A487" d="M121.1,249.1h14.1v42.2h4.7v4.7h-18.8v-4.7h4.7v-37.5h-4.7V249.1z"/>
	</g>
</g>
</svg>
